<?xml version="1.0" standalone="no"?>
<!DOCTYPE svg PUBLIC "-//W3C//DTD SVG 20010904//EN"
 "http://www.w3.org/TR/2001/REC-SVG-20010904/DTD/svg10.dtd">
<svg version="1.0" xmlns="http://www.w3.org/2000/svg"
 width="512.000000pt" height="512.000000pt" viewBox="0 0 512.000000 512.000000"
 preserveAspectRatio="xMidYMid meet">

<g transform="translate(0.000000,512.000000) scale(0.100000,-0.100000)"
fill="#000000" stroke="none">
<path d="M912 5104 c-63 -17 -82 -26 -145 -71 -63 -46 -123 -132 -147 -211
-20 -63 -20 -99 -20 -2177 0 -2078 0 -2114 20 -2177 45 -145 166 -255 318
-287 29 -6 138 -11 242 -11 l190 0 0 -29 c0 -33 33 -85 72 -114 14 -11 48 -22
75 -24 44 -5 59 0 161 53 l112 58 118 -57 c71 -35 130 -57 150 -57 74 0 147
60 158 131 l6 39 1057 2 1056 3 53 29 c57 32 98 79 118 135 11 29 13 486 14
2312 l0 2275 -26 52 c-29 58 -82 105 -144 127 -62 22 -3356 21 -3438 -1z
m3391 -166 c12 -6 27 -18 34 -27 10 -12 12 -440 13 -1923 l0 -1907 -24 -28
-24 -28 -1596 -3 -1596 -2 0 1965 0 1965 1586 0 c1186 0 1591 -3 1607 -12z
m-3363 -1968 c0 -1911 0 -1960 -19 -1960 -10 0 -48 -15 -85 -33 l-66 -34 0
1897 c0 1408 3 1906 12 1931 17 51 58 105 103 133 21 14 43 26 47 26 4 0 8
-882 8 -1960z m3399 -2586 c-6 -12 -22 -27 -36 -33 -17 -8 -320 -11 -1053 -11
l-1030 0 0 85 0 85 645 0 c683 0 692 1 709 45 13 35 6 76 -19 100 l-24 25
-1186 0 -1186 0 -24 -25 c-35 -34 -33 -78 4 -116 29 -28 32 -29 131 -29 l101
0 -3 -82 -3 -83 -205 0 -205 0 -53 29 c-86 48 -132 128 -132 230 1 96 55 180
145 222 l50 24 1660 1 c913 1 1674 4 1690 8 l30 6 3 -230 c2 -157 -1 -237 -9
-251z m-2289 -45 l0 -171 -104 56 c-135 73 -157 73 -300 6 l-106 -49 0 164 0
165 255 0 255 0 0 -171z"/>
<path d="M1396 4770 c-37 -12 -85 -56 -102 -97 -12 -27 -14 -304 -14 -1690 l0
-1658 23 -40 c30 -52 76 -82 140 -90 29 -3 628 -5 1332 -3 1169 3 1283 4 1310
20 39 21 71 56 84 91 15 40 15 3324 0 3364 -14 38 -57 83 -96 99 -27 12 -250
14 -1340 13 -719 0 -1321 -5 -1337 -9z m2614 -1780 l0 -1620 -1280 0 -1280 0
0 1620 0 1620 1280 0 1280 0 0 -1620z"/>
<path d="M2542 4335 c-356 -65 -658 -294 -812 -617 -226 -476 -87 -1042 334
-1360 448 -338 1085 -285 1470 123 498 527 367 1379 -266 1731 -212 118 -492
165 -726 123z m58 -172 c0 -5 -45 -137 -101 -295 l-102 -288 -269 0 -269 0 7
23 c25 83 125 226 218 314 123 117 262 195 413 232 89 22 103 24 103 14z m366
-14 c261 -68 483 -249 608 -496 14 -29 26 -57 26 -63 0 -7 -89 -10 -265 -10
-242 0 -265 2 -274 18 -11 20 -201 555 -201 565 0 11 21 8 106 -14z m-152
-370 c36 -103 66 -189 66 -193 0 -3 -67 -6 -150 -6 -82 0 -150 2 -150 4 0 7
141 399 147 409 4 6 9 2 13 -9 4 -10 37 -103 74 -205z m-484 -376 c0 -18 -54
-163 -61 -163 -8 0 -236 145 -253 161 -6 5 60 9 152 9 89 0 162 -3 162 -7z
m663 -130 c26 -75 46 -137 45 -138 -17 -15 -300 -195 -307 -195 -7 0 -277 171
-308 195 -3 2 85 254 93 267 3 4 101 8 217 8 l212 0 48 -137z m452 128 c-18
-15 -246 -161 -253 -161 -7 0 -62 146 -62 163 0 4 73 7 162 7 92 0 158 -4 153
-9z m-1431 -202 l204 -131 -18 -52 c-40 -115 -150 -409 -154 -413 -10 -10
-112 141 -156 232 -55 112 -86 227 -96 356 -6 79 -1 139 11 139 3 0 97 -59
209 -131z m1656 52 c0 -207 -69 -409 -197 -579 -30 -41 -56 -72 -58 -70 -13
13 -164 463 -158 469 17 16 396 259 404 259 5 0 9 -35 9 -79z m-1176 -367 l78
-52 -128 -84 c-177 -115 -204 -131 -204 -121 0 4 25 78 55 163 31 85 58 161
60 169 6 15 0 18 139 -75z m671 -97 c30 -85 55 -158 55 -162 0 -8 -33 12 -204
123 l-129 84 104 68 c74 49 106 65 111 56 4 -7 32 -83 63 -169z m-195 -212
l224 -147 -44 -24 c-78 -41 -223 -83 -324 -93 -176 -18 -361 15 -511 91 l-49
25 171 112 c93 61 196 129 229 150 32 22 64 38 69 36 6 -1 111 -69 235 -150z"/>
<path d="M2075 1935 c-37 -36 -34 -86 6 -119 l31 -26 614 0 c632 0 642 1 671
39 21 27 15 79 -12 106 l-24 25 -631 0 -631 0 -24 -25z"/>
<path d="M3786 658 c-28 -25 -34 -49 -23 -90 13 -48 49 -58 212 -58 l147 0 29
29 c37 38 39 82 4 116 -24 24 -28 25 -184 25 -152 0 -161 -1 -185 -22z"/>
</g>
</svg>
